<svg xmlns="http://www.w3.org/2000/svg" viewBox="0 0 15 15" width="24" height="24" fill="currentColor"><path fill-rule="evenodd" d="M.25 1A.75.75 0 0 1 1 .25h13a.75.75 0 0 1 .75.75v13a.75.75 0 0 1-.75.75H1A.75.75 0 0 1 .25 14V1Zm1.5.75v11.5h11.5V1.75H1.75Z" clip-rule="evenodd"/><rect x="7" y="5" rx=".5"/><rect x="7" y="3" rx=".5"/><rect x="7" y="7" rx=".5"/><rect x="5" y="7" rx=".5"/><rect x="3" y="7" rx=".5"/><rect x="9" y="7" rx=".5"/><rect x="11" y="7" rx=".5"/><rect x="7" y="9" rx=".5"/><rect x="7" y="11" rx=".5"/></svg>