<svg xmlns="http://www.w3.org/2000/svg" viewBox="0 0 24 24" width="24" height="24" fill="currentColor"><path d="M19.93 10.782v-6.72a.99.99 0 0 0-.52-.87.979.979 0 0 0-1.06.07l-.87.71a16.533 16.533 0 0 1-6.1 3.19l-.46.13H5.56a2.507 2.507 0 0 0-2.5 2.5v4.42a2.509 2.509 0 0 0 1.44 2.26v2.38a2.08 2.08 0 0 0 4.16 0v-2.14h2.29l.42.12a16.5 16.5 0 0 1 6.11 3.19l.92.75a.94.94 0 0 0 .53.16.993.993 0 0 0 1-1v-6.72a1.236 1.236 0 0 0 0-2.43Zm-12.27 8.07a1.08 1.08 0 1 1-2.16 0v-2.14h2.16Zm2.84-3.14H5.56a1.511 1.511 0 0 1-1.5-1.5v-4.42a1.5 1.5 0 0 1 1.5-1.5h4.94Zm7.61 3.54a17.4 17.4 0 0 0-6.47-3.39l-.14-.04v-7.66l.15-.04a17.345 17.345 0 0 0 6.46-3.38l.82-.68.05 15.91Z"/></svg>