<svg xmlns="http://www.w3.org/2000/svg" viewBox="0 0 24 24" width="24" height="24" fill="currentColor"><path d="M20.455 17.378h-2.08v-8.43a3.713 3.713 0 0 0-.38-2.1 2.756 2.756 0 0 0-2.51-1.23h-8.86v-2.07a.5.5 0 0 0-1 0v2.07h-2.08a.5.5 0 0 0 0 1h2.08v8.43a3.762 3.762 0 0 0 .38 2.11 2.769 2.769 0 0 0 2.51 1.22h8.86v2.07a.5.5 0 0 0 1 0v-2.07h2.08a.5.5 0 0 0 0-1Zm-11.19 0a5.042 5.042 0 0 1-1.6-.09c-.95-.33-1.04-1.21-1.04-2.06v-8.61h8.11a5.042 5.042 0 0 1 1.6.09c.95.33 1.04 1.21 1.04 2.06v8.61Z"/></svg>