<svg xmlns="http://www.w3.org/2000/svg" stroke="currentColor" stroke-width="1.5" aria-hidden="true" viewBox="0 0 24 24" width="24" height="24" fill="currentColor"><path stroke-linecap="round" stroke-linejoin="round" d="M4.5 12c0-1.232.046-2.453.138-3.662a4.006 4.006 0 0 1 3.7-3.7 48.678 48.678 0 0 1 7.324 0 4.006 4.006 0 0 1 3.7 3.7c.017.22.032.441.046.662M4.5 12l-3-3m3 3 3-3m12 3c0 1.232-.046 2.453-.138 3.662a4.006 4.006 0 0 1-3.7 3.7 48.657 48.657 0 0 1-7.324 0 4.006 4.006 0 0 1-3.7-3.7c-.017-.22-.032-.441-.046-.662M19.5 12l-3 3m3-3 3 3"/></svg>