<svg xmlns="http://www.w3.org/2000/svg" fill="none" stroke-linecap="round" stroke-linejoin="round" stroke-width="2" viewBox="0 0 24 24" width="24" height="24" stroke="currentColor"><path stroke="none" d="M0 0h24v24H0z"/><rect x="5" y="4" rx="1"/><rect x="9" y="4" rx="1"/><path d="M5 8h4m0 8h4m.803-11.44 2.184-.53c.562-.135 1.133.19 1.282.732l3.695 13.418a1.02 1.02 0 0 1-.634 1.219l-.133.041-2.184.53c-.562.135-1.133-.19-1.282-.732L13.036 5.82a1.02 1.02 0 0 1 .634-1.219l.133-.041zM14 9l4-1m-2 8 3.923-.98"/></svg>