<svg xmlns="http://www.w3.org/2000/svg" fill="none" stroke-linecap="round" stroke-linejoin="round" stroke-width="2" viewBox="0 0 24 24" width="24" height="24" stroke="currentColor"><path stroke="none" d="M0 0h24v24H0z"/><rect x="4" y="4" rx="2"/><path d="M12 4v2.5a.5.5 0 0 1-.5.5 1.5 1.5 0 0 0 0 3 .5.5 0 0 1 .5.5V12m0 0v1.5a.5.5 0 0 0 .5.5 1.5 1.5 0 0 1 0 3 .5.5 0 0 0-.5.5V20m8-8h-2.5a.5.5 0 0 1-.5-.5 1.5 1.5 0 0 0-3 0 .5.5 0 0 1-.5.5H12m0 0h-1.5a.5.5 0 0 0-.5.5 1.5 1.5 0 0 1-3 0 .5.5 0 0 0-.5-.5H4"/></svg>