<svg xmlns="http://www.w3.org/2000/svg" viewBox="0 0 16 16" width="24" height="24" fill="currentColor"><circle cx="7.5" cy="7.5" r="1"/><path fill-rule="evenodd" d="m13.684 9.51-.952-.31A5.497 5.497 0 0 0 13 7.5c0-.595-.094-1.166-.268-1.7l.952-.31a6.525 6.525 0 0 1 0 4.02Zm-.391-4.962-.89.455a5.528 5.528 0 0 0-2.406-2.405l.455-.89a6.529 6.529 0 0 1 2.84 2.84ZM9.509 1.317l-.309.95A5.495 5.495 0 0 0 7.5 2c-.595 0-1.166.094-1.7.268l-.31-.951A6.495 6.495 0 0 1 7.5 1c.701 0 1.377.111 2.01.317Zm-4.96.39.454.89a5.528 5.528 0 0 0-2.405 2.406l-.89-.455a6.528 6.528 0 0 1 2.84-2.84ZM1.316 5.491A6.495 6.495 0 0 0 1 7.5c0 .701.111 1.377.317 2.01l.95-.31A5.495 5.495 0 0 1 2 7.5c0-.595.094-1.166.268-1.7l-.951-.31Zm.39 4.96.89-.454a5.528 5.528 0 0 0 2.406 2.405l-.455.89a6.529 6.529 0 0 1-2.84-2.84Zm3.784 3.232.309-.95A5.497 5.497 0 0 0 7.5 13c.595 0 1.166-.094 1.7-.268l.31.952A6.494 6.494 0 0 1 7.5 14a6.494 6.494 0 0 1-2.01-.316Zm4.96-.39-.454-.89a5.528 5.528 0 0 0 2.405-2.406l.89.455a6.53 6.53 0 0 1-2.84 2.84Z" clip-rule="evenodd"/></svg>